<?xml version="1.0" encoding="UTF-8"?>
<svg xmlns="http://www.w3.org/2000/svg" xmlns:xlink="http://www.w3.org/1999/xlink" viewBox="0 0 64 64" width="64px" height="64px">
<g id="surface57710433">
<path style=" stroke:none;fill-rule:nonzero;fill:rgb(100%,100%,100%);fill-opacity:1;" d="M 49.398438 30.449219 L 51.300781 33.398438 L 49.398438 33.398438 L 49.398438 55.5 L 14.601562 55.5 L 14.601562 33.949219 L 11.898438 33.148438 L 14.601562 30.449219 L 32 12.398438 Z M 49.398438 30.449219 "/>
<path style=" stroke:none;fill-rule:nonzero;fill:rgb(50.980395%,80.784315%,98.039216%);fill-opacity:1;" d="M 20.148438 55.5 L 20.148438 35.898438 L 29.800781 35.898438 L 29.800781 55.5 M 32 8.5 L 8.800781 32 L 11.75 34.949219 L 32 13.898438 L 52.25 34.949219 L 55.199219 32 L 49.398438 26.148438 L 49.398438 12.398438 L 43.601562 12.398438 L 43.601562 20.25 Z M 32 8.5 "/>
<path style=" stroke:none;fill-rule:nonzero;fill:rgb(50.980395%,80.784315%,98.039216%);fill-opacity:1;" d="M 24.25 29.101562 C 25.800781 20.398438 38.148438 20.398438 39.699219 29.101562 Z M 24.25 29.101562 "/>
<path style=" stroke:none;fill-rule:nonzero;fill:rgb(20.392157%,59.607846%,85.882354%);fill-opacity:1;" d="M 49.398438 57 L 14.601562 57 C 13.75 57 13.101562 56.351562 13.101562 55.5 L 13.101562 35.449219 L 10.75 35.449219 C 10.351562 35.449219 9.949219 35.300781 9.648438 35 L 7.699219 33.050781 C 7.101562 32.449219 7.101562 31.550781 7.699219 30.949219 L 30.898438 7.449219 C 31.449219 6.898438 32.449219 6.898438 33.050781 7.449219 L 42.050781 16.601562 L 42.050781 12.398438 C 42.050781 11.550781 42.699219 10.898438 43.550781 10.898438 L 49.351562 10.898438 C 50.199219 10.898438 50.851562 11.550781 50.851562 12.398438 L 50.851562 25.5 L 56.199219 30.949219 C 56.800781 31.550781 56.800781 32.449219 56.199219 33.050781 L 54.25 35 C 53.949219 35.300781 53.601562 35.449219 53.199219 35.449219 L 50.851562 35.449219 L 50.851562 55.5 C 50.898438 56.351562 50.199219 57 49.398438 57 Z M 16.101562 54 L 47.851562 54 L 47.851562 33.949219 C 47.851562 33.550781 48 33.148438 48.300781 32.898438 C 48.601562 32.601562 49 32.449219 49.351562 32.449219 L 52.601562 32.449219 L 53.050781 32 L 48.300781 27.199219 C 48 26.898438 47.851562 26.550781 47.851562 26.148438 L 47.851562 13.898438 L 45.050781 13.898438 L 45.050781 20.25 C 45.050781 20.851562 44.699219 21.398438 44.101562 21.648438 C 43.550781 21.898438 42.898438 21.75 42.449219 21.300781 L 32 10.648438 L 10.949219 32 L 11.398438 32.449219 L 14.648438 32.449219 C 15.050781 32.449219 15.449219 32.601562 15.699219 32.898438 C 16 33.199219 16.148438 33.550781 16.148438 33.949219 Z M 16.101562 54 "/>
<path style=" stroke:none;fill-rule:nonzero;fill:rgb(50.980395%,80.784315%,98.039216%);fill-opacity:1;" d="M 34.199219 35.898438 L 43.851562 35.898438 L 43.851562 45.699219 L 34.199219 45.699219 Z M 34.199219 35.898438 "/>
<path style=" stroke:none;fill-rule:nonzero;fill:rgb(89.019608%,95.294118%,96.862745%);fill-opacity:1;" d="M 24.949219 38.851562 C 23.871094 38.851562 23 39.722656 23 40.800781 C 23 41.878906 23.871094 42.75 24.949219 42.75 C 26.027344 42.75 26.898438 41.878906 26.898438 40.800781 C 26.898438 39.722656 26.027344 38.851562 24.949219 38.851562 Z M 24.949219 38.851562 "/>
</g>
</svg>
